<mxfile host="app.diagrams.net" modified="2021-12-21T02:28:15.951Z" agent="5.0 (Windows NT 10.0; Win64; x64) AppleWebKit/537.36 (KHTML, like Gecko) Chrome/96.0.4664.45 Safari/537.36" etag="z_ba9BkaY3V9s96YztCd" version="16.0.0" type="github">
  <diagram id="C5RBs43oDa-KdzZeNtuy" name="Page-1">
    <mxGraphModel dx="929" dy="418" grid="1" gridSize="10" guides="1" tooltips="1" connect="1" arrows="1" fold="1" page="1" pageScale="1" pageWidth="827" pageHeight="1169" math="0" shadow="0">
      <root>
        <mxCell id="WIyWlLk6GJQsqaUBKTNV-0" />
        <mxCell id="WIyWlLk6GJQsqaUBKTNV-1" parent="WIyWlLk6GJQsqaUBKTNV-0" />
        <mxCell id="WIyWlLk6GJQsqaUBKTNV-2" value="" style="rounded=0;html=1;jettySize=auto;orthogonalLoop=1;fontSize=11;endArrow=block;endFill=0;endSize=8;strokeWidth=1;shadow=0;labelBackgroundColor=none;edgeStyle=orthogonalEdgeStyle;entryX=0.5;entryY=0;entryDx=0;entryDy=0;" parent="WIyWlLk6GJQsqaUBKTNV-1" source="WIyWlLk6GJQsqaUBKTNV-3" target="dbQoRYESZt0Vp6GMK-Lx-2" edge="1">
          <mxGeometry relative="1" as="geometry">
            <mxPoint x="360" y="250" as="targetPoint" />
          </mxGeometry>
        </mxCell>
        <mxCell id="WIyWlLk6GJQsqaUBKTNV-3" value="二分网络上的链路预测" style="rounded=1;whiteSpace=wrap;html=1;fontSize=12;glass=0;strokeWidth=1;shadow=0;" parent="WIyWlLk6GJQsqaUBKTNV-1" vertex="1">
          <mxGeometry x="300" y="240" width="120" height="40" as="geometry" />
        </mxCell>
        <mxCell id="WIyWlLk6GJQsqaUBKTNV-8" value="" style="rounded=0;html=1;jettySize=auto;orthogonalLoop=1;fontSize=11;endArrow=block;endFill=0;endSize=8;strokeWidth=1;shadow=0;labelBackgroundColor=none;edgeStyle=orthogonalEdgeStyle;exitX=0.5;exitY=1;exitDx=0;exitDy=0;" parent="WIyWlLk6GJQsqaUBKTNV-1" source="dbQoRYESZt0Vp6GMK-Lx-2" edge="1">
          <mxGeometry x="0.3333" y="20" relative="1" as="geometry">
            <mxPoint as="offset" />
            <mxPoint x="360" y="440" as="sourcePoint" />
            <mxPoint x="360" y="430" as="targetPoint" />
            <Array as="points" />
          </mxGeometry>
        </mxCell>
        <mxCell id="WIyWlLk6GJQsqaUBKTNV-12" value="rating.dat" style="rounded=1;whiteSpace=wrap;html=1;fontSize=12;glass=0;strokeWidth=1;shadow=0;" parent="WIyWlLk6GJQsqaUBKTNV-1" vertex="1">
          <mxGeometry x="460" y="350" width="120" height="40" as="geometry" />
        </mxCell>
        <mxCell id="dbQoRYESZt0Vp6GMK-Lx-2" value="生成二分网络邻接矩阵" style="rounded=1;whiteSpace=wrap;html=1;" parent="WIyWlLk6GJQsqaUBKTNV-1" vertex="1">
          <mxGeometry x="300" y="340" width="120" height="60" as="geometry" />
        </mxCell>
        <mxCell id="dbQoRYESZt0Vp6GMK-Lx-4" value="" style="endArrow=classic;html=1;rounded=0;entryX=1;entryY=0.5;entryDx=0;entryDy=0;exitX=0;exitY=0.5;exitDx=0;exitDy=0;" parent="WIyWlLk6GJQsqaUBKTNV-1" source="WIyWlLk6GJQsqaUBKTNV-12" target="dbQoRYESZt0Vp6GMK-Lx-2" edge="1">
          <mxGeometry width="50" height="50" relative="1" as="geometry">
            <mxPoint x="520" y="420" as="sourcePoint" />
            <mxPoint x="570" y="370" as="targetPoint" />
          </mxGeometry>
        </mxCell>
        <mxCell id="dbQoRYESZt0Vp6GMK-Lx-9" value="" style="edgeStyle=orthogonalEdgeStyle;rounded=0;orthogonalLoop=1;jettySize=auto;html=1;" parent="WIyWlLk6GJQsqaUBKTNV-1" source="dbQoRYESZt0Vp6GMK-Lx-5" target="dbQoRYESZt0Vp6GMK-Lx-17" edge="1">
          <mxGeometry relative="1" as="geometry">
            <mxPoint x="660" y="550" as="targetPoint" />
            <Array as="points">
              <mxPoint x="660" y="470" />
            </Array>
          </mxGeometry>
        </mxCell>
        <mxCell id="dbQoRYESZt0Vp6GMK-Lx-10" value="测试集" style="edgeLabel;html=1;align=center;verticalAlign=middle;resizable=0;points=[];" parent="dbQoRYESZt0Vp6GMK-Lx-9" vertex="1" connectable="0">
          <mxGeometry x="0.0828" relative="1" as="geometry">
            <mxPoint as="offset" />
          </mxGeometry>
        </mxCell>
        <mxCell id="dbQoRYESZt0Vp6GMK-Lx-5" value="数据划分为测试集和训练集" style="rhombus;whiteSpace=wrap;html=1;" parent="WIyWlLk6GJQsqaUBKTNV-1" vertex="1">
          <mxGeometry x="270" y="430" width="180" height="80" as="geometry" />
        </mxCell>
        <mxCell id="dbQoRYESZt0Vp6GMK-Lx-6" value="" style="endArrow=classic;html=1;rounded=0;exitX=0;exitY=0.5;exitDx=0;exitDy=0;edgeStyle=orthogonalEdgeStyle;" parent="WIyWlLk6GJQsqaUBKTNV-1" source="dbQoRYESZt0Vp6GMK-Lx-5" target="dbQoRYESZt0Vp6GMK-Lx-12" edge="1">
          <mxGeometry width="50" height="50" relative="1" as="geometry">
            <mxPoint x="140" y="470" as="sourcePoint" />
            <mxPoint x="160" y="550" as="targetPoint" />
          </mxGeometry>
        </mxCell>
        <mxCell id="dbQoRYESZt0Vp6GMK-Lx-7" value="训练集" style="edgeLabel;html=1;align=center;verticalAlign=middle;resizable=0;points=[];" parent="dbQoRYESZt0Vp6GMK-Lx-6" vertex="1" connectable="0">
          <mxGeometry x="-0.3879" y="4" relative="1" as="geometry">
            <mxPoint as="offset" />
          </mxGeometry>
        </mxCell>
        <mxCell id="dbQoRYESZt0Vp6GMK-Lx-11" value="" style="endArrow=classic;html=1;rounded=0;" parent="WIyWlLk6GJQsqaUBKTNV-1" target="dbQoRYESZt0Vp6GMK-Lx-16" edge="1">
          <mxGeometry width="50" height="50" relative="1" as="geometry">
            <mxPoint x="520" y="470" as="sourcePoint" />
            <mxPoint x="519.5" y="555" as="targetPoint" />
          </mxGeometry>
        </mxCell>
        <mxCell id="dbQoRYESZt0Vp6GMK-Lx-14" value="" style="edgeStyle=orthogonalEdgeStyle;rounded=0;orthogonalLoop=1;jettySize=auto;html=1;" parent="WIyWlLk6GJQsqaUBKTNV-1" source="dbQoRYESZt0Vp6GMK-Lx-12" target="dbQoRYESZt0Vp6GMK-Lx-15" edge="1">
          <mxGeometry relative="1" as="geometry">
            <mxPoint x="155" y="660" as="targetPoint" />
          </mxGeometry>
        </mxCell>
        <mxCell id="dbQoRYESZt0Vp6GMK-Lx-12" value="计算资源配额矩阵" style="rounded=1;whiteSpace=wrap;html=1;" parent="WIyWlLk6GJQsqaUBKTNV-1" vertex="1">
          <mxGeometry x="100" y="520" width="110" height="40" as="geometry" />
        </mxCell>
        <mxCell id="dbQoRYESZt0Vp6GMK-Lx-18" style="edgeStyle=orthogonalEdgeStyle;rounded=0;orthogonalLoop=1;jettySize=auto;html=1;exitX=1;exitY=0.5;exitDx=0;exitDy=0;entryX=0.5;entryY=1;entryDx=0;entryDy=0;" parent="WIyWlLk6GJQsqaUBKTNV-1" source="dbQoRYESZt0Vp6GMK-Lx-15" target="dbQoRYESZt0Vp6GMK-Lx-16" edge="1">
          <mxGeometry relative="1" as="geometry" />
        </mxCell>
        <mxCell id="dbQoRYESZt0Vp6GMK-Lx-19" style="edgeStyle=orthogonalEdgeStyle;rounded=0;orthogonalLoop=1;jettySize=auto;html=1;exitX=1;exitY=0.5;exitDx=0;exitDy=0;entryX=0.5;entryY=1;entryDx=0;entryDy=0;" parent="WIyWlLk6GJQsqaUBKTNV-1" source="dbQoRYESZt0Vp6GMK-Lx-15" target="dbQoRYESZt0Vp6GMK-Lx-17" edge="1">
          <mxGeometry relative="1" as="geometry" />
        </mxCell>
        <mxCell id="dbQoRYESZt0Vp6GMK-Lx-15" value="为用户生成电影推荐排名" style="rounded=1;whiteSpace=wrap;html=1;" parent="WIyWlLk6GJQsqaUBKTNV-1" vertex="1">
          <mxGeometry x="97.5" y="610" width="115" height="40" as="geometry" />
        </mxCell>
        <mxCell id="dbQoRYESZt0Vp6GMK-Lx-16" value="计算电影平均相对位置" style="rounded=1;whiteSpace=wrap;html=1;" parent="WIyWlLk6GJQsqaUBKTNV-1" vertex="1">
          <mxGeometry x="469.75" y="525" width="100.5" height="35" as="geometry" />
        </mxCell>
        <mxCell id="dbQoRYESZt0Vp6GMK-Lx-17" value="选取不同阈值，生成ROC曲线" style="rounded=1;whiteSpace=wrap;html=1;" parent="WIyWlLk6GJQsqaUBKTNV-1" vertex="1">
          <mxGeometry x="600" y="520" width="110" height="40" as="geometry" />
        </mxCell>
      </root>
    </mxGraphModel>
  </diagram>
</mxfile>
